<mxfile host="app.diagrams.net" modified="2023-10-26T09:24:18.772Z" agent="Mozilla/5.0 (Windows NT 10.0; Win64; x64) AppleWebKit/537.36 (KHTML, like Gecko) Chrome/118.0.0.0 Safari/537.36" etag="FUYFdz_eURANhWSzwWQE" version="22.0.8" type="device">
  <diagram id="prtHgNgQTEPvFCAcTncT" name="Page-1">
    <mxGraphModel dx="1050" dy="534" grid="1" gridSize="10" guides="1" tooltips="1" connect="1" arrows="1" fold="1" page="1" pageScale="1" pageWidth="827" pageHeight="1169" math="0" shadow="0">
      <root>
        <mxCell id="0" />
        <mxCell id="1" parent="0" />
        <mxCell id="iFNeUs9AGltrZyCfmElo-1" value="Direzione generale" style="rounded=0;whiteSpace=wrap;html=1;" vertex="1" parent="1">
          <mxGeometry x="354" y="80" width="120" height="60" as="geometry" />
        </mxCell>
        <mxCell id="iFNeUs9AGltrZyCfmElo-3" value="" style="endArrow=none;html=1;rounded=0;entryX=0.5;entryY=1;entryDx=0;entryDy=0;" edge="1" parent="1" target="iFNeUs9AGltrZyCfmElo-1">
          <mxGeometry width="50" height="50" relative="1" as="geometry">
            <mxPoint x="414" y="240" as="sourcePoint" />
            <mxPoint x="430" y="130" as="targetPoint" />
            <Array as="points">
              <mxPoint x="414" y="170" />
            </Array>
          </mxGeometry>
        </mxCell>
        <mxCell id="iFNeUs9AGltrZyCfmElo-4" value="Direzione personale" style="rounded=0;whiteSpace=wrap;html=1;" vertex="1" parent="1">
          <mxGeometry x="524" y="150" width="120" height="60" as="geometry" />
        </mxCell>
        <mxCell id="iFNeUs9AGltrZyCfmElo-5" value="" style="endArrow=none;html=1;rounded=0;" edge="1" parent="1">
          <mxGeometry width="50" height="50" relative="1" as="geometry">
            <mxPoint x="414" y="179.5" as="sourcePoint" />
            <mxPoint x="524" y="179.5" as="targetPoint" />
          </mxGeometry>
        </mxCell>
        <mxCell id="iFNeUs9AGltrZyCfmElo-7" value="" style="endArrow=none;html=1;rounded=0;" edge="1" parent="1">
          <mxGeometry width="50" height="50" relative="1" as="geometry">
            <mxPoint x="70" y="240" as="sourcePoint" />
            <mxPoint x="414" y="240" as="targetPoint" />
          </mxGeometry>
        </mxCell>
        <mxCell id="iFNeUs9AGltrZyCfmElo-8" value="" style="endArrow=none;html=1;rounded=0;" edge="1" parent="1">
          <mxGeometry width="50" height="50" relative="1" as="geometry">
            <mxPoint x="414" y="240" as="sourcePoint" />
            <mxPoint x="760" y="240" as="targetPoint" />
          </mxGeometry>
        </mxCell>
        <mxCell id="iFNeUs9AGltrZyCfmElo-9" value="Direzione amministrativa" style="rounded=0;whiteSpace=wrap;html=1;" vertex="1" parent="1">
          <mxGeometry x="10" y="280" width="120" height="60" as="geometry" />
        </mxCell>
        <mxCell id="iFNeUs9AGltrZyCfmElo-10" value="" style="endArrow=none;html=1;rounded=0;exitX=0.5;exitY=0;exitDx=0;exitDy=0;" edge="1" parent="1" source="iFNeUs9AGltrZyCfmElo-9">
          <mxGeometry width="50" height="50" relative="1" as="geometry">
            <mxPoint x="20" y="270" as="sourcePoint" />
            <mxPoint x="70" y="240" as="targetPoint" />
          </mxGeometry>
        </mxCell>
        <mxCell id="iFNeUs9AGltrZyCfmElo-11" value="Direzione personale" style="rounded=0;whiteSpace=wrap;html=1;" vertex="1" parent="1">
          <mxGeometry x="150" y="280" width="120" height="60" as="geometry" />
        </mxCell>
        <mxCell id="iFNeUs9AGltrZyCfmElo-12" value="" style="endArrow=none;html=1;rounded=0;exitX=0.5;exitY=0;exitDx=0;exitDy=0;" edge="1" parent="1">
          <mxGeometry width="50" height="50" relative="1" as="geometry">
            <mxPoint x="209.5" y="280" as="sourcePoint" />
            <mxPoint x="209.5" y="240" as="targetPoint" />
          </mxGeometry>
        </mxCell>
        <mxCell id="iFNeUs9AGltrZyCfmElo-13" value="Direzione acquisti" style="rounded=0;whiteSpace=wrap;html=1;" vertex="1" parent="1">
          <mxGeometry x="294" y="280" width="120" height="60" as="geometry" />
        </mxCell>
        <mxCell id="iFNeUs9AGltrZyCfmElo-14" value="Direzione commerciale" style="rounded=0;whiteSpace=wrap;html=1;" vertex="1" parent="1">
          <mxGeometry x="430" y="280" width="120" height="60" as="geometry" />
        </mxCell>
        <mxCell id="iFNeUs9AGltrZyCfmElo-15" value="Direzione tecnica" style="rounded=0;whiteSpace=wrap;html=1;" vertex="1" parent="1">
          <mxGeometry x="570" y="280" width="120" height="60" as="geometry" />
        </mxCell>
        <mxCell id="iFNeUs9AGltrZyCfmElo-16" value="Direzione di produzione" style="rounded=0;whiteSpace=wrap;html=1;" vertex="1" parent="1">
          <mxGeometry x="700" y="280" width="120" height="60" as="geometry" />
        </mxCell>
        <mxCell id="iFNeUs9AGltrZyCfmElo-18" value="" style="endArrow=none;html=1;rounded=0;exitX=0.5;exitY=0;exitDx=0;exitDy=0;" edge="1" parent="1">
          <mxGeometry width="50" height="50" relative="1" as="geometry">
            <mxPoint x="360" y="280" as="sourcePoint" />
            <mxPoint x="360" y="240" as="targetPoint" />
          </mxGeometry>
        </mxCell>
        <mxCell id="iFNeUs9AGltrZyCfmElo-19" value="" style="endArrow=none;html=1;rounded=0;exitX=0.5;exitY=0;exitDx=0;exitDy=0;" edge="1" parent="1">
          <mxGeometry width="50" height="50" relative="1" as="geometry">
            <mxPoint x="489.5" y="280" as="sourcePoint" />
            <mxPoint x="489.5" y="240" as="targetPoint" />
          </mxGeometry>
        </mxCell>
        <mxCell id="iFNeUs9AGltrZyCfmElo-23" value="" style="endArrow=none;html=1;rounded=0;exitX=0.5;exitY=0;exitDx=0;exitDy=0;" edge="1" parent="1">
          <mxGeometry width="50" height="50" relative="1" as="geometry">
            <mxPoint x="759.5" y="280" as="sourcePoint" />
            <mxPoint x="759.5" y="240" as="targetPoint" />
          </mxGeometry>
        </mxCell>
        <mxCell id="iFNeUs9AGltrZyCfmElo-24" value="" style="endArrow=none;html=1;rounded=0;exitX=0.5;exitY=0;exitDx=0;exitDy=0;" edge="1" parent="1">
          <mxGeometry width="50" height="50" relative="1" as="geometry">
            <mxPoint x="630" y="280" as="sourcePoint" />
            <mxPoint x="630" y="240" as="targetPoint" />
          </mxGeometry>
        </mxCell>
        <mxCell id="iFNeUs9AGltrZyCfmElo-25" value="" style="endArrow=none;html=1;rounded=0;" edge="1" parent="1">
          <mxGeometry width="50" height="50" relative="1" as="geometry">
            <mxPoint x="280" y="390" as="sourcePoint" />
            <mxPoint x="330" y="340" as="targetPoint" />
            <Array as="points" />
          </mxGeometry>
        </mxCell>
        <mxCell id="iFNeUs9AGltrZyCfmElo-26" value="" style="endArrow=none;html=1;rounded=0;" edge="1" parent="1">
          <mxGeometry width="50" height="50" relative="1" as="geometry">
            <mxPoint x="280" y="440" as="sourcePoint" />
            <mxPoint x="280" y="390" as="targetPoint" />
          </mxGeometry>
        </mxCell>
        <mxCell id="iFNeUs9AGltrZyCfmElo-29" value="" style="endArrow=none;html=1;rounded=0;" edge="1" parent="1">
          <mxGeometry width="50" height="50" relative="1" as="geometry">
            <mxPoint x="420" y="390" as="sourcePoint" />
            <mxPoint x="380" y="340" as="targetPoint" />
          </mxGeometry>
        </mxCell>
        <mxCell id="iFNeUs9AGltrZyCfmElo-30" value="" style="endArrow=none;html=1;rounded=0;" edge="1" parent="1">
          <mxGeometry width="50" height="50" relative="1" as="geometry">
            <mxPoint x="419.5" y="440" as="sourcePoint" />
            <mxPoint x="420" y="390" as="targetPoint" />
          </mxGeometry>
        </mxCell>
        <mxCell id="iFNeUs9AGltrZyCfmElo-31" value="Ufficio acquisti" style="rounded=0;whiteSpace=wrap;html=1;" vertex="1" parent="1">
          <mxGeometry x="220" y="440" width="120" height="60" as="geometry" />
        </mxCell>
        <mxCell id="iFNeUs9AGltrZyCfmElo-32" value="Ufficio ordini" style="rounded=0;whiteSpace=wrap;html=1;" vertex="1" parent="1">
          <mxGeometry x="360" y="440" width="120" height="60" as="geometry" />
        </mxCell>
        <mxCell id="iFNeUs9AGltrZyCfmElo-33" value="Specifiche tecniche" style="rounded=0;whiteSpace=wrap;html=1;" vertex="1" parent="1">
          <mxGeometry x="150" y="555" width="120" height="60" as="geometry" />
        </mxCell>
        <mxCell id="iFNeUs9AGltrZyCfmElo-34" value="Materie prime" style="rounded=0;whiteSpace=wrap;html=1;" vertex="1" parent="1">
          <mxGeometry x="280" y="555" width="120" height="60" as="geometry" />
        </mxCell>
        <mxCell id="iFNeUs9AGltrZyCfmElo-35" value="Semilavorati" style="rounded=0;whiteSpace=wrap;html=1;" vertex="1" parent="1">
          <mxGeometry x="409.5" y="555" width="120" height="60" as="geometry" />
        </mxCell>
        <mxCell id="iFNeUs9AGltrZyCfmElo-36" value="" style="endArrow=none;html=1;rounded=0;" edge="1" parent="1">
          <mxGeometry width="50" height="50" relative="1" as="geometry">
            <mxPoint x="279" y="520" as="sourcePoint" />
            <mxPoint x="279" y="500" as="targetPoint" />
          </mxGeometry>
        </mxCell>
        <mxCell id="iFNeUs9AGltrZyCfmElo-37" value="" style="endArrow=none;html=1;rounded=0;" edge="1" parent="1">
          <mxGeometry width="50" height="50" relative="1" as="geometry">
            <mxPoint x="419.5" y="520" as="sourcePoint" />
            <mxPoint x="419.5" y="500" as="targetPoint" />
          </mxGeometry>
        </mxCell>
        <mxCell id="iFNeUs9AGltrZyCfmElo-38" value="" style="endArrow=none;html=1;rounded=0;" edge="1" parent="1">
          <mxGeometry width="50" height="50" relative="1" as="geometry">
            <mxPoint x="280" y="520" as="sourcePoint" />
            <mxPoint x="420" y="520" as="targetPoint" />
          </mxGeometry>
        </mxCell>
        <mxCell id="iFNeUs9AGltrZyCfmElo-39" value="" style="endArrow=none;html=1;rounded=0;exitX=0.5;exitY=0;exitDx=0;exitDy=0;" edge="1" parent="1" source="iFNeUs9AGltrZyCfmElo-33">
          <mxGeometry width="50" height="50" relative="1" as="geometry">
            <mxPoint x="210" y="560" as="sourcePoint" />
            <mxPoint x="300" y="520" as="targetPoint" />
          </mxGeometry>
        </mxCell>
        <mxCell id="iFNeUs9AGltrZyCfmElo-40" value="" style="endArrow=none;html=1;rounded=0;" edge="1" parent="1">
          <mxGeometry width="50" height="50" relative="1" as="geometry">
            <mxPoint x="353.5" y="555" as="sourcePoint" />
            <mxPoint x="354" y="520" as="targetPoint" />
          </mxGeometry>
        </mxCell>
        <mxCell id="iFNeUs9AGltrZyCfmElo-41" value="" style="endArrow=none;html=1;rounded=0;exitX=0.5;exitY=0;exitDx=0;exitDy=0;" edge="1" parent="1" source="iFNeUs9AGltrZyCfmElo-35">
          <mxGeometry width="50" height="50" relative="1" as="geometry">
            <mxPoint x="480" y="550" as="sourcePoint" />
            <mxPoint x="400" y="520" as="targetPoint" />
          </mxGeometry>
        </mxCell>
        <mxCell id="iFNeUs9AGltrZyCfmElo-42" value="" style="endArrow=none;html=1;rounded=0;entryX=0.5;entryY=1;entryDx=0;entryDy=0;" edge="1" parent="1" target="iFNeUs9AGltrZyCfmElo-9">
          <mxGeometry width="50" height="50" relative="1" as="geometry">
            <mxPoint x="70" y="400" as="sourcePoint" />
            <mxPoint x="80" y="340" as="targetPoint" />
          </mxGeometry>
        </mxCell>
        <mxCell id="iFNeUs9AGltrZyCfmElo-43" value="Responsabile ufficio marketing" style="rounded=0;whiteSpace=wrap;html=1;" vertex="1" parent="1">
          <mxGeometry x="10" y="400" width="120" height="60" as="geometry" />
        </mxCell>
        <mxCell id="iFNeUs9AGltrZyCfmElo-44" value="" style="endArrow=none;html=1;rounded=0;entryX=0.5;entryY=1;entryDx=0;entryDy=0;exitX=0.5;exitY=0;exitDx=0;exitDy=0;" edge="1" parent="1" source="iFNeUs9AGltrZyCfmElo-45" target="iFNeUs9AGltrZyCfmElo-14">
          <mxGeometry width="50" height="50" relative="1" as="geometry">
            <mxPoint x="600" y="400" as="sourcePoint" />
            <mxPoint x="570" y="390" as="targetPoint" />
            <Array as="points">
              <mxPoint x="590" y="620" />
            </Array>
          </mxGeometry>
        </mxCell>
        <mxCell id="iFNeUs9AGltrZyCfmElo-45" value="Responsabile ufficio vendite" style="rounded=0;whiteSpace=wrap;html=1;" vertex="1" parent="1">
          <mxGeometry x="410" y="650" width="120" height="60" as="geometry" />
        </mxCell>
        <mxCell id="iFNeUs9AGltrZyCfmElo-47" value="" style="endArrow=none;html=1;rounded=0;" edge="1" parent="1">
          <mxGeometry width="50" height="50" relative="1" as="geometry">
            <mxPoint x="474" y="740" as="sourcePoint" />
            <mxPoint x="474" y="710" as="targetPoint" />
          </mxGeometry>
        </mxCell>
        <mxCell id="iFNeUs9AGltrZyCfmElo-48" value="" style="endArrow=none;html=1;rounded=0;" edge="1" parent="1">
          <mxGeometry width="50" height="50" relative="1" as="geometry">
            <mxPoint x="430" y="740" as="sourcePoint" />
            <mxPoint x="570" y="740" as="targetPoint" />
          </mxGeometry>
        </mxCell>
        <mxCell id="iFNeUs9AGltrZyCfmElo-49" value="" style="endArrow=none;html=1;rounded=0;" edge="1" parent="1">
          <mxGeometry width="50" height="50" relative="1" as="geometry">
            <mxPoint x="430" y="770" as="sourcePoint" />
            <mxPoint x="430" y="740" as="targetPoint" />
          </mxGeometry>
        </mxCell>
        <mxCell id="iFNeUs9AGltrZyCfmElo-50" value="" style="endArrow=none;html=1;rounded=0;" edge="1" parent="1">
          <mxGeometry width="50" height="50" relative="1" as="geometry">
            <mxPoint x="569.5" y="770" as="sourcePoint" />
            <mxPoint x="569.5" y="740" as="targetPoint" />
          </mxGeometry>
        </mxCell>
        <mxCell id="iFNeUs9AGltrZyCfmElo-51" value="Responsabile ufficio vendite Italia" style="rounded=0;whiteSpace=wrap;html=1;" vertex="1" parent="1">
          <mxGeometry x="380" y="770" width="120" height="60" as="geometry" />
        </mxCell>
        <mxCell id="iFNeUs9AGltrZyCfmElo-52" value="Responsabile ufficio vendite estero" style="rounded=0;whiteSpace=wrap;html=1;" vertex="1" parent="1">
          <mxGeometry x="510" y="770" width="120" height="60" as="geometry" />
        </mxCell>
        <mxCell id="iFNeUs9AGltrZyCfmElo-55" value="" style="endArrow=none;html=1;rounded=0;entryX=0.5;entryY=1;entryDx=0;entryDy=0;" edge="1" parent="1" target="iFNeUs9AGltrZyCfmElo-16">
          <mxGeometry width="50" height="50" relative="1" as="geometry">
            <mxPoint x="730" y="380" as="sourcePoint" />
            <mxPoint x="770" y="370" as="targetPoint" />
          </mxGeometry>
        </mxCell>
        <mxCell id="iFNeUs9AGltrZyCfmElo-56" value="Responsabile di produzione e programmazione&lt;br style=&quot;padding: 0px; margin: 0px; color: transparent; position: absolute; cursor: text; transform-origin: 0% 0%; font-family: Arial; font-size: 16px; text-align: start; background-color: rgb(255, 255, 255);&quot; role=&quot;presentation&quot;&gt;&lt;span style=&quot;padding: 0px; margin: 0px; color: transparent; position: absolute; cursor: text; transform-origin: 0% 0%; text-align: start; background-color: rgb(255, 255, 255); left: 136.32px; top: 735.558px; font-size: 28.8px; font-family: serif; transform: scaleX(0.999471);&quot; dir=&quot;ltr&quot; role=&quot;presentation&quot;&gt;programmazione&lt;/span&gt;" style="rounded=0;whiteSpace=wrap;html=1;" vertex="1" parent="1">
          <mxGeometry x="560" y="420" width="120" height="60" as="geometry" />
        </mxCell>
        <mxCell id="iFNeUs9AGltrZyCfmElo-57" value="" style="endArrow=none;html=1;rounded=0;" edge="1" parent="1">
          <mxGeometry width="50" height="50" relative="1" as="geometry">
            <mxPoint x="650" y="380" as="sourcePoint" />
            <mxPoint x="779.5" y="380" as="targetPoint" />
          </mxGeometry>
        </mxCell>
        <mxCell id="iFNeUs9AGltrZyCfmElo-58" value="" style="endArrow=none;html=1;rounded=0;exitX=0.5;exitY=0;exitDx=0;exitDy=0;" edge="1" parent="1" source="iFNeUs9AGltrZyCfmElo-56">
          <mxGeometry width="50" height="50" relative="1" as="geometry">
            <mxPoint x="590" y="420" as="sourcePoint" />
            <mxPoint x="650" y="380" as="targetPoint" />
          </mxGeometry>
        </mxCell>
        <mxCell id="iFNeUs9AGltrZyCfmElo-60" value="Responsabile manutenzione" style="rounded=0;whiteSpace=wrap;html=1;" vertex="1" parent="1">
          <mxGeometry x="700" y="420" width="120" height="60" as="geometry" />
        </mxCell>
        <mxCell id="iFNeUs9AGltrZyCfmElo-61" value="" style="endArrow=none;html=1;rounded=0;exitX=0.67;exitY=-0.007;exitDx=0;exitDy=0;exitPerimeter=0;" edge="1" parent="1" source="iFNeUs9AGltrZyCfmElo-60">
          <mxGeometry width="50" height="50" relative="1" as="geometry">
            <mxPoint x="730" y="450" as="sourcePoint" />
            <mxPoint x="780" y="380" as="targetPoint" />
          </mxGeometry>
        </mxCell>
        <mxCell id="iFNeUs9AGltrZyCfmElo-62" value="Stabilimento A – Stabilimento B" style="rounded=0;whiteSpace=wrap;html=1;" vertex="1" parent="1">
          <mxGeometry x="630" y="530" width="120" height="60" as="geometry" />
        </mxCell>
        <mxCell id="iFNeUs9AGltrZyCfmElo-63" value="" style="endArrow=none;html=1;rounded=0;" edge="1" parent="1">
          <mxGeometry width="50" height="50" relative="1" as="geometry">
            <mxPoint x="690" y="530" as="sourcePoint" />
            <mxPoint x="690" y="510" as="targetPoint" />
          </mxGeometry>
        </mxCell>
        <mxCell id="iFNeUs9AGltrZyCfmElo-64" value="" style="endArrow=none;html=1;rounded=0;" edge="1" parent="1">
          <mxGeometry width="50" height="50" relative="1" as="geometry">
            <mxPoint x="620" y="510" as="sourcePoint" />
            <mxPoint x="770" y="510" as="targetPoint" />
          </mxGeometry>
        </mxCell>
        <mxCell id="iFNeUs9AGltrZyCfmElo-65" value="" style="endArrow=none;html=1;rounded=0;entryX=0.5;entryY=1;entryDx=0;entryDy=0;" edge="1" parent="1" target="iFNeUs9AGltrZyCfmElo-56">
          <mxGeometry width="50" height="50" relative="1" as="geometry">
            <mxPoint x="620" y="510" as="sourcePoint" />
            <mxPoint x="670" y="460" as="targetPoint" />
          </mxGeometry>
        </mxCell>
        <mxCell id="iFNeUs9AGltrZyCfmElo-66" value="" style="endArrow=none;html=1;rounded=0;entryX=0.5;entryY=1;entryDx=0;entryDy=0;" edge="1" parent="1">
          <mxGeometry width="50" height="50" relative="1" as="geometry">
            <mxPoint x="770" y="510" as="sourcePoint" />
            <mxPoint x="770" y="480" as="targetPoint" />
          </mxGeometry>
        </mxCell>
      </root>
    </mxGraphModel>
  </diagram>
</mxfile>
